#!OML:ASF G:\JayActor3\Patient Classification 1\Patient 1\Session 2\male.ASF
:FULLY-SPECIFIED
:DEGREES
2774
root 41.8085 15.2207 -6.30793 1063.65 -83.3535 -333.164
lowerback 15.4692 -0.263948 -1.52148
upperback 13.7855 -1.46099 -0.655117
thorax 6.12066 -1.21305 0.257031
lowerneck -2.91007 1.8508 0.598649
upperneck -14.4406 1.95639 -2.00517
head -4.18984 0.869097 -0.815907
rclavicle -2.87741e-014 -4.22417e-015
rhumerus -23.5535 3.99609 -75.1272
rradius 65.7454
rwrist 7.80164
rhand -41.7793 7.57369
rfingers 7.12502
rthumb -14.6825 -21.8864
lclavicle -2.87741e-014 -4.22417e-015
lhumerus 8.66542 -8.55153 77.7869
lradius 85.0737
lwrist 1.71533
lhand -25.0747 11.9244
lfingers 7.12502
lthumb 1.43941 41.8992
rfemur -53.8667 -12.2989 32.9182
rtibia 64.232
rfoot -28.321 -13.4104
rtoes 25.4388
lfemur -14.0046 13.2678 -19.5295
ltibia 64.7755
lfoot -2.7205 13.1053
ltoes -17.7118
2775
root 41.752 15.2127 -6.31777 1063.73 -83.2146 -333.277
lowerback 15.4858 -0.272889 -1.38048
upperback 13.7675 -1.45667 -0.611221
thorax 6.08908 -1.20011 0.225441
lowerneck -2.9423 1.81999 0.571546
upperneck -14.378 1.90975 -2.06436
head -4.1614 0.850492 -0.828598
rclavicle 7.70291e-015 1.77912e-014
rhumerus -23.5505 3.9637 -75.0724
rradius 65.8395
rwrist 7.77872
rhand -41.7625 7.59989
rfingers 7.12502
rthumb -14.6664 -21.8614
lclavicle 7.70291e-015 1.77912e-014
lhumerus 8.42697 -8.67666 78.0618
lradius 84.9399
lwrist 1.6893
lhand -25.0373 11.8838
lfingers 7.12502
lthumb 1.47552 41.8584
rfemur -53.7317 -12.4464 32.9065
rtibia 64.4708
rfoot -28.6423 -13.3684
rtoes 25.2632
lfemur -14.4752 13.1344 -19.3791
ltibia 65.6711
lfoot -1.65356 12.884
ltoes -16.8885
2776
root 41.6983 15.2035 -6.32735 1063.69 -83.1191 -333.259
lowerback 15.4994 -0.267185 -1.25189
upperback 13.7424 -1.4339 -0.570559
thorax 6.05109 -1.17862 0.195642
lowerneck -2.96076 1.79197 0.558291
upperneck -14.3276 1.86558 -2.13473
head -4.13977 0.832787 -0.847836
rclavicle -1.72756e-014 1.00635e-014
rhumerus -23.5239 3.9438 -75.0204
rradius 65.9083
rwrist 7.75494
rhand -41.7493 7.6213
rfingers 7.12502
rthumb -14.6536 -21.8409
lclavicle -1.72756e-014 1.00635e-014
lhumerus 8.18517 -8.78307 78.3416
lradius 84.8062
lwrist 1.66175
lhand -25.0191 11.8419
lfingers 7.12502
lthumb 1.49316 41.8164
rfemur -53.6222 -12.5525 32.899
rtibia 64.7066
rfoot -28.9359 -13.3267
rtoes 25.0798
lfemur -15.0247 13.0403 -19.2321
ltibia 66.6295
lfoot -0.539566 12.6376
ltoes -16.0021
2777
root 41.6456 15.1946 -6.33746 1063.67 -83.0118 -333.28
lowerback 15.5371 -0.261713 -1.12989
upperback 13.7214 -1.41328 -0.528743
thorax 6.00541 -1.15923 0.171337
lowerneck -2.96073 1.76315 0.562422
upperneck -14.2876 1.8195 -2.21336
head -4.12536 0.813628 -0.873193
rclavicle -2.1593e-014 -3.37188e-014
rhumerus -23.4835 3.92613 -74.9739
rradius 65.9594
rwrist 7.72783
rhand -41.7488 7.63801
rfingers 7.12502
rthumb -14.6532 -21.8242
lclavicle -2.1593e-014 -3.37188e-014
lhumerus 7.93752 -8.88319 78.6235
lradius 84.6723
lwrist 1.63992
lhand -25.0367 11.8027
lfingers 7.12502
lthumb 1.47609 41.7773
rfemur -53.4827 -12.6765 32.888
rtibia 64.9364
rfoot -29.2293 -13.2808
rtoes 24.894
lfemur -15.5905 12.9403 -19.0642
ltibia 67.6231
lfoot 0.627886 12.3515
ltoes -15.1109
2778
root 41.5937 15.1857 -6.34751 1063.62 -82.9055 -333.296
lowerback 15.5865 -0.254232 -1.00993
upperback 13.7034 -1.3908 -0.49013
thorax 5.95696 -1.13925 0.144708
lowerneck -2.94552 1.73284 0.581643
upperneck -14.2537 1.77137 -2.29438
head -4.11601 0.792868 -0.902206
rclavicle 1.60519e-014 -1.71949e-014
rhumerus -23.4388 3.91014 -74.9361
rradius 66.001
rwrist 7.69825
rhand -41.7602 7.66448
rfingers 7.12502
rthumb -14.6642 -21.797
lclavicle 1.60519e-014 -1.71949e-014
lhumerus 7.68063 -8.98048 78.9017
lradius 84.54
lwrist 1.62502
lhand -25.0852 11.7732
lfingers 7.12502
lthumb 1.4293 41.7482
rfemur -53.3215 -12.8126 32.8738
rtibia 65.1606
rfoot -29.5206 -13.2258
rtoes 24.7178
lfemur -16.1747 12.8417 -18.8845
ltibia 68.6466
lfoot 1.82201 12.0345
ltoes -14.2326
2779
root 41.5414 15.1774 -6.35756 1063.53 -82.7815 -333.29
lowerback 15.6479 -0.2515 -0.901198
upperback 13.6964 -1.377 -0.452843
thorax 5.9151 -1.12513 0.123708
lowerneck -2.92418 1.70177 0.602067
upperneck -14.2217 1.72261 -2.37247
head -4.10862 0.771643 -0.930544
rclavicle -3.18055e-015 -7.95139e-016
rhumerus -23.3796 3.90336 -74.9024
rradius 66.033
rwrist 7.66965
rhand -41.7807 7.67378
rfingers 7.12502
rthumb -14.6839 -21.7862
lclavicle -3.18055e-015 -7.95139e-016
lhumerus 7.41438 -9.06623 79.1759
lradius 84.4094
lwrist 1.61282
lhand -25.1583 11.7421
lfingers 7.12502
lthumb 1.35869 41.7175
rfemur -53.1203 -12.9852 32.8444
rtibia 65.3782
rfoot -29.8194 -13.1501
rtoes 24.568
lfemur -16.7488 12.7272 -18.6987
ltibia 69.6793
lfoot 3.08061 11.7005
ltoes -13.2674
2780
root 41.4913 15.1684 -6.36708 1063.45 -82.6944 -333.297
lowerback 15.7014 -0.241859 -0.785571
upperback 13.6867 -1.35314 -0.415271
thorax 5.87431 -1.10544 0.0979644
lowerneck -2.90543 1.67168 0.612293
upperneck -14.1889 1.67603 -2.44204
head -4.10063 0.751634 -0.954263
rclavicle 7.7526e-015 -2.29596e-014
rhumerus -23.3041 3.90622 -74.8702
rradius 66.0601
rwrist 7.63956
rhand -41.7991 7.69529
rfingers 7.12502
rthumb -14.7016 -21.7634
lclavicle 7.7526e-015 -2.29596e-014
lhumerus 7.14013 -9.13539 79.4447
lradius 84.2807
lwrist 1.59446
lhand -25.2419 11.6981
lfingers 7.12502
lthumb 1.27798 41.674
rfemur -52.9387 -13.1347 32.836
rtibia 65.5879
rfoot -30.0968 -13.0741
rtoes 24.429
lfemur -17.3833 12.6402 -18.5037
ltibia 70.7378
lfoot 4.3785 11.3614
ltoes -12.1553
